<svg width="162" height="149" viewBox="0 0 162 149" fill="none" xmlns="http://www.w3.org/2000/svg">
<rect x="0.5" y="0.5" width="123" height="148" stroke="#808080"/>
<line x1="12" y1="24.5" x2="99" y2="24.5" stroke="#808080"/>
<line x1="12" y1="49.5" x2="99" y2="49.5" stroke="#808080"/>
<line x1="12" y1="73.5" x2="99" y2="73.5" stroke="#808080"/>
<line x1="12" y1="98.5" x2="74" y2="98.5" stroke="#808080"/>
<path d="M127.212 76.6834L139.504 64.4L161 85.9004L148.712 98.1838L127.212 76.6834ZM127.212 76.6834L85.488 118.412C84.6734 119.226 84.2156 120.331 84.2154 121.482V141.185H103.918C105.069 141.184 106.174 140.727 106.988 139.912L148.712 98.1838L127.212 76.6834ZM127.212 76.6834L148.712 98.1838Z" fill="white"/>
<path d="M127.212 76.6834L148.712 98.1838M127.212 76.6834L139.504 64.4L161 85.9004L148.712 98.1838L127.212 76.6834ZM127.212 76.6834L85.488 118.412C84.6734 119.226 84.2156 120.331 84.2154 121.482V141.185H103.918C105.069 141.184 106.174 140.727 106.988 139.912L148.712 98.1838L127.212 76.6834Z" stroke="#808080" stroke-linecap="round" stroke-linejoin="round"/>
</svg>
